/* XPM */
static char *file_xpm[] = {
/* columns rows colors chars-per-pixel */
"16 16 77 1",
"  c DimGray",
". c #6B6D6D",
"X c #717171",
"o c #727272",
"O c #7E7F7F",
"+ c #906B31",
"@ c #866942",
"# c #846E6D",
"$ c #8D796F",
"% c #947E63",
"& c #A4853D",
"* c #9D825D",
"= c #BD9B4E",
"- c #A9906F",
"; c #D4BF4B",
": c #7878C0",
"> c #7878C1",
", c #7E8282",
"< c #808080",
"1 c #8D8D8D",
"2 c #909191",
"3 c gray58",
"4 c #9F9F9F",
"5 c #BCAA91",
"6 c #9CA2A2",
"7 c gray64",
"8 c #A2A5A4",
"9 c gray66",
"0 c #B1B1B1",
"q c #B4B4B4",
"w c #BEB4BA",
"e c #BBBDBD",
"r c #DBCFB5",
"t c #B9B6D3",
"y c #BCC0C0",
"u c #BDC0CB",
"i c #B6CACE",
"p c #BBCDD0",
"a c #BCCCD4",
"s c #BECDD4",
"d c #BFCDD5",
"f c #BFCED5",
"g c #BFCAD8",
"h c #BED0D1",
"j c gray76",
"k c #C3C9C8",
"l c #CBCBCB",
"z c #C1CFD6",
"x c #C1CED9",
"c c gray83",
"v c gray84",
"b c #D7D7D7",
"n c gray85",
"m c #DADADA",
"M c gray86",
"N c #E7E1D4",
"B c #E9E3D6",
"V c #EBE5D8",
"C c #C4C6E2",
"Z c #C9C9E3",
"A c #E1E1E1",
"S c #E2E2E2",
"D c #ECE8E2",
"F c #E9E9E9",
"G c gray92",
"H c #E9F4F2",
"J c #EBF5F3",
"K c #ECF5F4",
"L c #ECF6F4",
"P c gray94",
"I c #F4F4F4",
"U c gray97",
"Y c #F1F8F7",
"T c #F7FBFA",
"R c #F8F8F8",
"E c #FCFDFD",
"W c gray100",
/* pixels */
"UUUUUUUVVNrDIUWW",
"UUR=;+&;%;#*cPWW",
"UUZ>>+5$t-w*7SWW",
"UU>C@H@L@T@WocWW",
"UU:pHHHLYTEWocWW",
"UU:zHHHLYTEWocWW",
"UU:dHOOOeTEWocWW",
"UU:dHHHLYTWWocWW",
"UU>pHOOOOeWWocWW",
"UU>dHHHKYTEWXcWW",
"UU:zHOOOOeWWocWW",
"UU>xHHHKYTEWocWW",
"UU:pHOeKYTWWocWW",
"UU>pHHHKke823MWW",
"UUFt6,. o,14jFWW",
"UUIn09qjlcnSFUWW"
};
