/* XPM */
static char *folder_xpm[] = {
/* columns rows colors chars-per-pixel */
"16 16 53 1",
"  c gray29",
". c #6A6A6A",
"X c gray42",
"o c #7F7F7F",
"O c #996701",
"+ c #9A6802",
"@ c #9C6A04",
"# c #9E6C06",
"$ c #A06E08",
"% c #A3710B",
"& c #A5730D",
"* c #A87610",
"= c #AB7913",
"- c #AE7C16",
"; c #B07E18",
": c #B3811B",
"> c #B4811C",
", c #B5821D",
"< c #B7841F",
"1 c #B88520",
"2 c #BA8722",
"3 c #BC8924",
"4 c #BD8A25",
"5 c #BF8C27",
"6 c #C08D28",
"7 c #C28F2A",
"8 c #C5922D",
"9 c #C7942F",
"0 c #C99631",
"q c #CB9833",
"w c #CC9934",
"e c #D3A03B",
"r c #DCA944",
"t c #E6B34E",
"y c #EFBC57",
"u c #F8C560",
"i c #FFCC67",
"p c #FFD46F",
"a c #FFE07B",
"s c #888888",
"d c #FFE681",
"f c #FFEB85",
"g c #FFF48E",
"h c #FFF791",
"j c #FFFF99",
"k c gray76",
"l c gray81",
"z c #D7D7D7",
"x c #D8D8D8",
"c c #EEEEEE",
"v c #EFEFEF",
"b c gray97",
"n c gray100",
/* pixels */
"nnnnnnnnnnnnnnnn",
"bbwq09xcbbbbbbbb",
"bwnnnn7kcbbbbbbb",
"wnjjjjn42<,:;xcb",
"qhgggggnnnnn-szb",
"0fd888888722,::x",
"9a8nnnnnnnnndn%s",
"8pwjjjjjjjjjuj$X",
"7iqjhhhhhhhhyj@X",
"7i8jfffffffftj+X",
"4i4jaaaaaaaarj+X",
"2i<jppppppppejOX",
"z,:;==*&%##+OO o",
"ckoXXXXXXXXXXXok",
"bczlllllllllllzc",
"nnnnnnnnnnnnnnnn"
};
