/* XPM */
static char * fourdo_xpm[] = {
"32 32 158 2",
"  	c None",
". 	c #000000",
"+ 	c #010101",
"@ 	c #030303",
"# 	c #050505",
"$ 	c #070707",
"% 	c #0A0A0A",
"& 	c #0E0E0E",
"* 	c #121212",
"= 	c #171717",
"- 	c #1B1B1B",
"; 	c #1F1F1F",
"> 	c #222222",
", 	c #FE2424",
"' 	c #020202",
") 	c #080808",
"! 	c #0B0B0B",
"~ 	c #0F0F0F",
"{ 	c #131313",
"] 	c #181818",
"^ 	c #1D1D1D",
"/ 	c #212121",
"( 	c #252525",
"_ 	c #FE2929",
": 	c #FE2A2A",
"< 	c #040404",
"[ 	c #060606",
"} 	c #141414",
"| 	c #1E1E1E",
"1 	c #232323",
"2 	c #282828",
"3 	c #FE2C2C",
"4 	c #FE2F2F",
"5 	c #FE3131",
"6 	c #090909",
"7 	c #0C0C0C",
"8 	c #101010",
"9 	c #151515",
"0 	c #1A1A1A",
"a 	c #FE3333",
"b 	c #FE3636",
"c 	c #FE3838",
"d 	c #0D0D0D",
"e 	c #111111",
"f 	c #161616",
"g 	c #202020",
"h 	c #262626",
"i 	c #FE3A3A",
"j 	c #FE3D3D",
"k 	c #FE3E3E",
"l 	c #1C1C1C",
"m 	c #272727",
"n 	c #FE2D2D",
"o 	c #FE3C3C",
"p 	c #FE4040",
"q 	c #FE4343",
"r 	c #FE4444",
"s 	c #292929",
"t 	c #FE3434",
"u 	c #FE3939",
"v 	c #FE4242",
"w 	c #FF4B4B",
"x 	c #FF6565",
"y 	c #FF6464",
"z 	c #FF5454",
"A 	c #FF5252",
"B 	c #FF4F4F",
"C 	c #E53C3C",
"D 	c #CE3333",
"E 	c #191919",
"F 	c #FE3030",
"G 	c #FE3B3B",
"H 	c #FE4747",
"I 	c #FF7C7C",
"J 	c #FFF7F7",
"K 	c #FFFFFF",
"L 	c #6C1D1D",
"M 	c #FE3737",
"N 	c #FE4141",
"O 	c #FE4545",
"P 	c #FE4848",
"Q 	c #FF5D5D",
"R 	c #FF6C6C",
"S 	c #FFD8D8",
"T 	c #FE3232",
"U 	c #FE4646",
"V 	c #FE4949",
"W 	c #FF5353",
"X 	c #FF6E6E",
"Y 	c #FFA9A9",
"Z 	c #FE2525",
"` 	c #FE4A4A",
" .	c #FE4D4D",
"..	c #FF8181",
"+.	c #FFF8F8",
"@.	c #FE2222",
"#.	c #FF6363",
"$.	c #FF7272",
"%.	c #FFDADA",
"&.	c #FE4F4F",
"*.	c #FE1F1F",
"=.	c #FE2626",
"-.	c #FF5656",
";.	c #FFACAC",
">.	c #FDFBFB",
",.	c #FE5151",
"'.	c #FE2727",
").	c #FE2E2E",
"!.	c #FE4C4C",
"~.	c #FF6F6F",
"{.	c #FF8383",
"].	c #FFF9F9",
"^.	c #C79797",
"/.	c #FE5252",
"(.	c #FF7474",
"_.	c #FFDDDD",
":.	c #CECECE",
"<.	c #AE3D3D",
"[.	c #FE5353",
"}.	c #FE5050",
"|.	c #FF7171",
"1.	c #FFAEAE",
"2.	c #F9F9F9",
"3.	c #2E2E2E",
"4.	c #F35252",
"5.	c #FE3535",
"6.	c #FF8484",
"7.	c #FFFAFA",
"8.	c #7C7C7C",
"9.	c #0C0404",
"0.	c #FF5E5E",
"a.	c #FE2B2B",
"b.	c #FFDEDE",
"c.	c #CCCCCC",
"d.	c #9B3333",
"e.	c #FF6060",
"f.	c #FE4B4B",
"g.	c #FCFAFA",
"h.	c #8F4D4D",
"i.	c #E74D4D",
"j.	c #FF7575",
"k.	c #912F2F",
"l.	c #E54A4A",
"m.	c #CE4242",
"n.	c #FE4E4E",
"o.	c #6C2222",
"p.	c #242424",
"q.	c #912E2E",
"r.	c #3C1212",
"s.	c #FE3F3F",
"t.	c #FF5959",
"u.	c #FE2828",
"v.	c #E53E3E",
"w.	c #FE2323",
"x.	c #6C1B1B",
"y.	c #3C0E0E",
"z.	c #FE1D1D",
"A.	c #FE2121",
". . . . + @ # $ % & * = - ; > , , > ; - = * & % $ # @ + . . . . ",
". . + ' @ # ) ! ~ { ] ^ / ( _ : : _ ( / ^ ] { ~ ! ) # @ ' + . . ",
". + ' < [ ) ! ~ } ] | 1 2 3 4 5 5 4 3 2 1 | ] } ~ ! ) [ < ' + . ",
"+ @ < [ 6 7 8 9 0 ; ( : 4 a b c c b a 4 : ( ; 0 9 8 7 6 [ < @ + ",
"@ # $ % d e f - g h 3 5 b i j k k j i b 5 3 h g - f e d % $ # @ ",
"# ) ! & * = l > m n a c o p q r r q p o c a n m > l = * & ! ) # ",
"6 7 ~ } ] | 1 s 4 t u k v w x y z A B C D u t 4 s 1 | ] } ~ 7 6 ",
"7 8 } E ; ( : F b G p r H x I J K K K K L p G b F : ( ; E } 8 7 ",
"e 9 0 g h 3 5 M o N O P Q R S K K K K K . O N o M 5 3 h g 0 9 e ",
"9 0 g h 3 T c j v U V W X Y K K K K K K . V U v j c T 3 h g 0 9 ",
"E ; Z 3 T c k v H `  .R ..+.K K K K K K .  .` H v k c T 3 Z ; E ",
"l @._ F M j v H `  .#.$.%.K K K K K K K . &. .` H v j M F _ @.l ",
"*.=.n t G N U `  .-.$.;.K K K >.K K K K . ,.&. .` U N G t n =.*.",
"; '.).b j q P !.&.~.{.].K K K ^.K K K K . /.,.&.!.P q j b ).'.; ",
"g '.4 M k r V  .x (._.K K K :.<.K K K K . [./.}. .V r k M 4 '.g ",
"| h ).b k r V  .|.1.K K K 2.3.4.K K K K . [./.}. .V r k b ).h | ",
"^ ( n 5.j q V  .6.7.K K K 8.9.0.K K K K . [./.}. .V q j 5.n ( ^ ",
"0 > a.a G v P !.b.K K K c.< d.e.K K K K . [.,.&.!.P v G a a.> 0 ",
"] g 2 5 u p U f.K K K g.h.i.e.j.K K K K k.l.m.n.f.U p u 5 2 g ] ",
"9 ^ ( ).b k r V K K K K K K K K K K K K K K o. .V r k b ).( ^ 9 ",
"{ 0 > a.a G v P K K K K K K K K K K K K K K . !.P v G a a.> 0 { ",
"e = ; 2 F u p U K K K K K K K K K K K K K K . ` U p u F 2 ; = e ",
"& 9 l p.n 5.o q . . . . . . . q.K K K K . . r.P q o 5.n p.l 9 & ",
"7 * E / _ 5 c s.r P ` !. .n.n.t.K K K K . ` P r s.c 5 _ / E * 7 ",
"% 8 f | h n 5.G p r H V ` f.f.-.K K K K . H r p G 5.n h | f 8 % ",
"6 d { 0 / u.4 5.i k N q r O O v.K K K K . N k i 5.4 u./ 0 { d 6 ",
"$ ! 8 f ^ w.: F t c G j k s.s.D x.. . . y.G c t F : w.^ f 8 ! $ ",
"# 6 d * ] | , _ n 5 a 5.b M M M M M M b 5.a 5 n _ , | ] * d 6 # ",
"< $ % & { ] z.A.Z u.a.3 n ).).).).).).n 3 a.u.Z A.z.] { & % $ < ",
"' # $ ! & * f 0 ^ ; / 1 1 p.p.p.p.p.p.1 1 / ; ^ 0 f * & ! $ # ' ",
"+ @ # $ % d 8 { f = E 0 - - - - - - - - 0 E = f { 8 d % $ # @ + ",
". ' @ # $ 6 ! d ~ 8 * * { { { { { { { { * * 8 ~ d ! 6 $ # @ ' . "};
