/* XPM */
static char *fourdo_xpm[] = {
/* columns rows colors chars-per-pixel */
"32 32 6 1",
"  c Black",
". c Blue",
"X c #00bf00",
"o c Red",
"O c Yellow",
"+ c Gray100",
/* pixels */
"                                ",
"                                ",
"                                ",
"                                ",
"    oo  ......          OOOO    ",
"    oo  ......          OOOO    ",
"    oo  ..    ..      OO    OO  ",
"    oo  ..    ..      OO    OO  ",
"  oooo  ..    ..      OO    OO  ",
"  oooo  ..    ..      OO    OO  ",
"  oooo  ..      ..  OO        OO",
"  oooo  ..      ..  OO        OO",
"oo  oo  ..      ..  OO        OO",
"oo  oo  ..      ..  OO        OO",
"oo  oo  ..      ..  OO        OO",
"oo  oo  ..      ..  OO        OO",
"oo  oo  ..      ..  OO        OO",
"oooooo  ..      ..  OO        OO",
"oooooo  ..      ..  OO        OO",
"    oo  ..      ..  OO        OO",
"    oo  ..      ..  OO        OO",
"    oo  ..    ..      OO    OO  ",
"    oo  ..    ..      OO    OO  ",
"    oo  ..    ..      OO    OO  ",
"    oo  ..    ..      OO    OO  ",
"    oo  ......          OOOO    ",
"    oo  ......          OOOO    ",
"                                ",
"                                ",
"                                ",
"                                ",
"                                "
};